<!--Embeded svg sprite reference-->
<svg xmlns="http://www.w3.org/2000/svg" display="none">
    <symbol xmlns="http://www.w3.org/2000/svg" id="command" fill="currentColor" viewBox="0 0 60 60">
        <path fill="currentColor" d="M50 40h-8V20h8c5.514 0 10-4.486 10-10S55.514 0 50 0 40 4.486 40 10v8H20v-8c0-5.514-4.486-10-10-10S0 4.486 0 10s4.486 10 10 10h8v20h-8C4.486 40 0 44.486 0 50s4.486 10 10 10 10-4.486 10-10v-8h20v8c0 5.514 4.486 10 10 10s10-4.486 10-10-4.486-10-10-10zm-8-30c0-4.411 3.589-8 8-8s8 3.589 8 8-3.589 8-8 8h-8v-8zm-32 8c-4.411 0-8-3.589-8-8s3.589-8 8-8 8 3.589 8 8v8h-8zm8 32c0 4.411-3.589 8-8 8s-8-3.589-8-8 3.589-8 8-8h8v8zm2-10V20h20v20H20zm30 18c-4.411 0-8-3.589-8-8v-8h8c4.411 0 8 3.589 8 8s-3.589 8-8 8z"/>
    </symbol>
    <symbol xmlns="http://www.w3.org/2000/svg" id="angle-up" fill="currentColor" viewBox="0 0 612 612">
        <path d="M604.501 440.509L325.398 134.956c-5.331-5.357-12.423-7.627-19.386-7.27-6.989-.357-14.056 1.913-19.387 7.27L7.499 440.509c-9.999 10.024-9.999 26.298 0 36.323s26.223 10.024 36.222 0l262.293-287.164L568.28 476.832c9.999 10.024 26.222 10.024 36.221 0 9.999-10.023 9.999-26.298 0-36.323z"/>
    </symbol>
    <symbol xmlns="http://www.w3.org/2000/svg" id="angle-left" viewBox="0 0 129 129">
        <path d="M88.6 121.3c.8.8 1.8 1.2 2.9 1.2s2.1-.4 2.9-1.2c1.6-1.6 1.6-4.2 0-5.8l-51-51 51-51c1.6-1.6 1.6-4.2 0-5.8s-4.2-1.6-5.8 0l-54 53.9c-1.6 1.6-1.6 4.2 0 5.8l54 53.9z"/>
    </symbol>
    <symbol xmlns="http://www.w3.org/2000/svg" id="heart" viewBox="0 0 471.701 471.701">
        <path d="M433.601 67.001c-24.7-24.7-57.4-38.2-92.3-38.2s-67.7 13.6-92.4 38.3l-12.9 12.9-13.1-13.1c-24.7-24.7-57.6-38.4-92.5-38.4-34.8 0-67.6 13.6-92.2 38.2-24.7 24.7-38.3 57.5-38.2 92.4 0 34.9 13.7 67.6 38.4 92.3l187.8 187.8c2.6 2.6 6.1 4 9.5 4 3.4 0 6.9-1.3 9.5-3.9l188.2-187.5c24.7-24.7 38.3-57.5 38.3-92.4.1-34.9-13.4-67.7-38.1-92.4zm-19.2 165.7l-178.7 178-178.3-178.3c-19.6-19.6-30.4-45.6-30.4-73.3s10.7-53.7 30.3-73.2c19.5-19.5 45.5-30.3 73.1-30.3 27.7 0 53.8 10.8 73.4 30.4l22.6 22.6c5.3 5.3 13.8 5.3 19.1 0l22.4-22.4c19.6-19.6 45.7-30.4 73.3-30.4 27.6 0 53.6 10.8 73.2 30.3 19.6 19.6 30.3 45.6 30.3 73.3.1 27.7-10.7 53.7-30.3 73.3z"/>
    </symbol>
    <symbol xmlns="http://www.w3.org/2000/svg" id="magic" viewBox="0 1 512 511">
        <path d="M162 71.414c4.14 0 7.5-3.36 7.5-7.5V8c0-4.14-3.36-7.5-7.5-7.5s-7.5 3.36-7.5 7.5v55.914a7.5 7.5 0 0 0 7.5 7.5zm0 0M162 253.586a7.5 7.5 0 0 0-7.5 7.5V317c0 4.14 3.36 7.5 7.5 7.5s7.5-3.36 7.5-7.5v-55.914a7.5 7.5 0 0 0-7.5-7.5zm0 0M58.055 47.95a7.497 7.497 0 0 0-10.606 0 7.497 7.497 0 0 0 0 10.605l39.535 39.539a7.48 7.48 0 0 0 5.305 2.195 7.48 7.48 0 0 0 5.305-2.195 7.51 7.51 0 0 0 0-10.61zm0 0M70.914 162.5c0-4.14-3.36-7.5-7.5-7.5H7.5c-4.14 0-7.5 3.36-7.5 7.5s3.36 7.5 7.5 7.5h55.914c4.14 0 7.5-3.36 7.5-7.5zm0 0M253.086 162.5a7.5 7.5 0 0 0 7.5 7.5H316.5c4.14 0 7.5-3.36 7.5-7.5s-3.36-7.5-7.5-7.5h-55.914a7.5 7.5 0 0 0-7.5 7.5zm0 0M86.984 226.906l-39.535 39.54a7.497 7.497 0 0 0 5.305 12.8 7.47 7.47 0 0 0 5.3-2.195l39.54-39.54a7.504 7.504 0 0 0 0-10.605 7.502 7.502 0 0 0-10.61 0zm0 0M231.71 100.29c1.919 0 3.84-.731 5.302-2.196l39.539-39.54a7.497 7.497 0 0 0 0-10.605 7.497 7.497 0 0 0-10.606 0l-39.539 39.535a7.502 7.502 0 0 0 5.305 12.805zm0 0M509.805 464.91L177.496 132.602c-12.516-12.512-32.879-12.512-45.394 0-12.512 12.515-12.512 32.878 0 45.394l294.277 294.277a7.497 7.497 0 0 0 10.605 0 7.497 7.497 0 0 0 0-10.605l-227.636-227.64 24.18-24.18L493.894 470.21l-24.184 24.184-13.055-13.051a7.497 7.497 0 1 0-10.601 10.605l18.355 18.356a7.49 7.49 0 0 0 5.305 2.195 7.475 7.475 0 0 0 5.3-2.2l34.79-34.784c2.925-2.93 2.925-7.68 0-10.606zM198.742 223.422l-56.031-56.031c-6.668-6.668-6.668-17.516 0-24.18 6.664-6.668 17.512-6.668 24.18 0l56.03 56.031zm0 0"/>
    </symbol>
    <symbol xmlns="http://www.w3.org/2000/svg" id="crop" viewBox="0 0 533.333 533.333">
        <path d="M433.333 133.333l100-100L500 0 400 100H166.667V0H100v100H0v66.667h100v266.667h266.667v100h66.667v-100h100v-66.666h-100V133.333zm-266.666 33.334h166.667L166.667 333.333V166.667zm33.333 200L366.667 200v166.667H200z"/>
    </symbol>
    <symbol xmlns="http://www.w3.org/2000/svg" id="siri" viewBox="0 0 512 512">
        <path d="M256 0C114.844 0 0 114.844 0 256s114.844 256 256 256 256-114.844 256-256S397.156 0 256 0zm-95.501 284.732c19.142 10.674 38.836 23.301 58.98 36.268a5006.82 5006.82 0 0 0 15.98 10.254c-7.362 5.224-14.447 10.719-21.574 16.329-10.147 7.979-20.848 16.099-32.744 23.72-28.337-17.397-74.131-24.781-108.006-27.814 20.406-10.854 46.417-26.542 72.198-47.156 5.226-4.181 10.196-7.893 15.166-11.601zm94.774 58.967c25.34 15.648 51.319 30.182 78.194 41.107-29.128 10.738-56.957 25.457-80.978 40.217-12.768-7.792-24.427-17.204-37.604-28.003a1243.05 1243.05 0 0 0-15.345-12.38c9.799-6.716 18.964-13.546 27.533-20.286 9.411-7.407 18.506-14.398 28.2-20.655zM42.755 257.758c8.12-1.007 18.359-1.758 31.911-1.758 20.53 0 42.243 7.087 64.823 17.887-2.499 1.944-4.971 3.766-7.49 5.78-27.665 22.139-55.996 38.423-76.385 48.815-8.036-22.141-12.656-45.888-12.859-70.724zm30.162 107.19c27.293 2.482 61.855 7.72 86.344 18.703-21.217 10.04-42.126 15.438-58.413 18.319a214.363 214.363 0 0 1-27.931-37.022zm46.765 54.979c18.234-4.32 39.549-11.469 60.701-23.161 7.456 5.767 14.452 11.413 20.982 16.755 10.641 8.719 20.684 16.892 31.396 24.191-12.928 8.638-24.204 16.806-33.335 23.766-29.629-8.171-56.753-22.401-79.744-41.551zM256 469.333c-9.59 0-18.962-.857-28.22-2.089a644.92 644.92 0 0 1 25.563-17.324c12.939 6.501 27.574 11.706 45.613 15.068A213.459 213.459 0 0 1 256 469.333zm92.629-21.454c-31.982-.288-54.609-4.477-73.103-11.607 27.979-16.285 60.085-31.473 92.283-39.803 13.025 3.788 25.986 7.398 38.73 10.53-16.759 16.708-36.389 30.446-57.91 40.88zm74.096-59.151c-4.79-1.109-9.456-2.025-14.302-3.236a277.253 277.253 0 0 0 23.294-8.783c-2.842 4.127-5.873 8.11-8.992 12.019zm-51.704-15.145c-1.031.229-2.055.561-3.085.803-.743-.221-1.464-.383-2.207-.605-30.25-9.078-59.78-24.491-88.664-41.811 16.918-7.307 37.004-11.97 64.268-11.97 50.708 0 78.904 15.556 97.901 29.525-16.339 8.696-38.395 17.433-68.213 24.058zm-29.688-74.916c-38.197 0-64.24 8.243-85.794 20.03a3213.307 3213.307 0 0 1-24.508-15.634c-17.41-11.208-34.483-22.079-51.328-31.879 38.857-25.741 71.413-36.496 108.276-36.496 47.147 0 102.314 27.027 171.913 84.039-1.616 5.241-3.57 10.326-5.572 15.387-20.789-15.713-53.721-35.447-112.987-35.447z"/>
    </symbol>
    <symbol xmlns="http://www.w3.org/2000/svg" id="mute" viewBox="0 0 612 612">
        <path d="M494.122 356.187c3.302-15.037 5.243-31.737 5.243-50.187 0-120.68-83.228-166.455-83.228-166.455v33.957S471.622 209.595 471.622 306c0 12.346-.916 23.664-2.497 34.04l24.997 16.147zM416.138 305.778c-.11-104.035-83.228-138.491-83.228-138.491v30.822s47.106 19.975 54.514 89.109l28.714 18.56zM568.666 404.375c8.323-25.939 13.927-58.314 13.927-98.375 0-154.276-83.228-194.198-83.228-194.198v36.01S554.85 178.44 554.85 306c0 34.29-4.022 61.561-9.877 83.062l23.693 15.313zM54.431 134.052l542.422 357.157L612 467.961 69.578 110.804zM185.736 156.856l119.432 77.207V84.06zM499.365 500.197s12.9-6.187 28.52-23.081l-24.802-16.035c-2.33 1.747-3.718 2.496-3.718 2.496v36.62zM0 246.825v118.377s0 29.602 28.908 29.602h57.788L305.168 527.94V333.16L106.809 204.962l-20.113 12.262H28.908C0 217.224 0 246.825 0 246.825zM332.91 413.891v30.822s35.844-14.87 60.479-54.515L371.5 376.05c-16.312 28.381-38.59 37.841-38.59 37.841zM416.138 437.333v35.122s21.75-11.957 43.001-39.783l-22.749-14.703c-10.958 13.51-20.252 19.364-20.252 19.364z"/>
    </symbol>
    <symbol xmlns="http://www.w3.org/2000/svg" id="unmute" viewBox="0 0 475.082 475.081">
        <path d="M200.999 63.952c-4.946 0-9.229 1.812-12.847 5.426l-95.074 95.075H18.276c-4.952 0-9.234 1.812-12.85 5.424C1.809 173.493 0 177.778 0 182.726v109.63c0 4.949 1.809 9.233 5.426 12.848 3.619 3.617 7.902 5.427 12.85 5.427h74.798l95.074 95.078c3.617 3.61 7.9 5.424 12.847 5.424 4.952 0 9.234-1.813 12.85-5.424 3.617-3.614 5.426-7.901 5.426-12.847V82.228c0-4.948-1.809-9.234-5.422-12.85-3.619-3.614-7.898-5.426-12.85-5.426zM316.769 277.936c8.093-12.467 12.135-25.93 12.135-40.395s-4.042-27.992-12.135-40.556c-8.094-12.562-18.791-21.41-32.121-26.551-1.902-.949-4.284-1.427-7.139-1.427-4.944 0-9.232 1.762-12.847 5.282-3.61 3.521-5.427 7.852-5.427 12.99 0 3.997 1.143 7.376 3.432 10.137 2.283 2.762 5.041 5.142 8.282 7.139a147.75 147.75 0 0 1 9.708 6.567c3.238 2.38 5.996 5.758 8.278 10.135 2.276 4.38 3.426 9.804 3.426 16.277 0 6.471-1.143 11.896-3.426 16.276-2.282 4.381-5.04 7.755-8.278 10.14a147.75 147.75 0 0 1-9.708 6.567c-3.241 1.992-5.999 4.377-8.282 7.132-2.282 2.765-3.432 6.143-3.432 10.14 0 5.144 1.816 9.47 5.427 12.99 3.614 3.521 7.902 5.288 12.847 5.288 2.854 0 5.236-.479 7.139-1.424 13.33-5.339 24.031-14.24 32.121-26.707z"/>
        <path d="M377.728 318.194c16.18-24.646 24.273-51.531 24.273-80.654 0-29.124-8.094-56.005-24.273-80.666-16.177-24.645-37.6-42.583-64.241-53.815-2.471-.95-4.948-1.427-7.416-1.427-4.948 0-9.236 1.809-12.854 5.426-3.613 3.616-5.424 7.898-5.424 12.847 0 7.424 3.713 13.039 11.139 16.849 10.657 5.518 17.888 9.705 21.693 12.559 14.089 10.28 25.077 23.173 32.976 38.686 7.898 15.514 11.848 32.026 11.848 49.537 0 17.512-3.949 34.023-11.848 49.536-7.898 15.516-18.894 28.407-32.976 38.684-3.806 2.857-11.036 7.043-21.693 12.563-7.426 3.809-11.139 9.424-11.139 16.847 0 4.948 1.811 9.236 5.424 12.847 3.617 3.621 7.991 5.432 13.131 5.432 2.286 0 4.668-.483 7.139-1.428 26.641-11.234 48.064-29.173 64.241-53.823z"/>
        <path d="M438.824 116.92c-24.171-36.638-56.343-63.622-96.505-80.943-2.471-.95-4.948-1.425-7.416-1.425-4.948 0-9.236 1.811-12.847 5.424-3.621 3.615-5.432 7.902-5.432 12.85 0 6.851 3.714 12.469 11.14 16.846 1.335.756 3.467 1.755 6.42 2.996 2.95 1.232 5.089 2.231 6.427 2.993 8.754 4.755 16.56 9.611 23.418 14.56 23.407 17.318 41.682 38.922 54.816 64.809 13.134 25.885 19.697 53.388 19.697 82.512 0 29.129-6.563 56.626-19.697 82.512-13.131 25.889-31.409 47.496-54.816 64.809-6.858 4.948-14.664 9.801-23.418 14.562-1.338.756-3.477 1.752-6.427 2.99-2.953 1.232-5.085 2.231-6.42 2.998-7.426 4.374-11.14 9.993-11.14 16.844 0 4.949 1.811 9.233 5.432 12.848 3.61 3.617 7.898 5.427 12.847 5.427 2.468 0 4.945-.476 7.416-1.431 40.162-17.315 72.334-44.3 96.505-80.94 24.174-36.638 36.258-76.849 36.258-120.625s-12.081-83.982-36.258-120.616z"/>
    </symbol>
    <symbol xmlns="http://www.w3.org/2000/svg" id="brightness" viewBox="0 0 512 512">
        <path d="M256 0c-8.284 0-15 6.716-15 15v32c0 8.284 6.716 15 15 15s15-6.716 15-15V15c0-8.284-6.716-15-15-15zM256 450c-8.284 0-15 6.716-15 15v32c0 8.284 6.716 15 15 15s15-6.716 15-15v-32c0-8.284-6.716-15-15-15zM119.529 98.315L96.901 75.687c-5.858-5.857-15.356-5.857-21.213 0-5.858 5.858-5.858 15.356 0 21.213l22.628 22.628c2.928 2.929 6.767 4.394 10.606 4.394s7.678-1.465 10.607-4.394c5.858-5.858 5.858-15.356 0-21.213zM436.313 415.099l-22.628-22.628c-5.858-5.857-15.356-5.857-21.213 0-5.858 5.858-5.858 15.356 0 21.213l22.628 22.628a14.95 14.95 0 0 0 10.606 4.394c3.839 0 7.678-1.465 10.607-4.394 5.858-5.858 5.858-15.356 0-21.213zM47 241H15c-8.284 0-15 6.716-15 15s6.716 15 15 15h32c8.284 0 15-6.716 15-15s-6.716-15-15-15zM497 241h-32c-8.284 0-15 6.716-15 15s6.716 15 15 15h32c8.284 0 15-6.716 15-15s-6.716-15-15-15zM119.529 392.471c-5.858-5.857-15.356-5.857-21.213 0l-22.628 22.628c-5.858 5.858-5.858 15.356 0 21.213 2.928 2.929 6.767 4.394 10.606 4.394s7.678-1.465 10.606-4.393l22.629-22.629c5.858-5.858 5.858-15.356 0-21.213zM436.313 75.688c-5.858-5.857-15.356-5.857-21.213 0l-22.628 22.627c-5.858 5.858-5.858 15.356 0 21.213 2.928 2.929 6.767 4.394 10.606 4.394s7.678-1.465 10.607-4.393l22.628-22.628c5.858-5.858 5.858-15.356 0-21.213zM256 97c-87.673 0-159 71.327-159 159s71.327 159 159 159 159-71.327 159-159S343.673 97 256 97zm15 287.123V127.877c64.089 7.456 114 62.066 114 128.123s-49.911 120.667-114 128.123z"/>
    </symbol>
    <symbol xmlns="http://www.w3.org/2000/svg" id="enter" viewBox="0 0 484.5 484.5">
        <path d="M433.5 114.75v102H96.9l91.8-91.8-35.7-35.7-153 153 153 153 35.7-35.7-91.8-91.8h387.6v-153z"/>
    </symbol>
    <symbol xmlns="http://www.w3.org/2000/svg" id="backspace" viewBox="0 0 489.425 489.425">
        <path d="M122.825 394.663c17.8 19.4 43.2 30.6 69.5 30.6h216.9c44.2 0 80.2-36 80.2-80.2v-200.7c0-44.2-36-80.2-80.2-80.2h-216.9c-26.4 0-51.7 11.1-69.5 30.6l-111.8 121.7c-14.7 16.1-14.7 40.3 0 56.4l111.8 121.8zm-93.7-161.6l111.8-121.8c13.2-14.4 32-22.6 51.5-22.6h216.9c30.7 0 55.7 25 55.7 55.7v200.6c0 30.7-25 55.7-55.7 55.7h-217c-19.5 0-38.3-8.2-51.5-22.6l-111.7-121.8c-6.1-6.6-6.1-16.6 0-23.2z"/>
        <path d="M225.425 309.763c2.4 2.4 5.5 3.6 8.7 3.6s6.3-1.2 8.7-3.6l47.8-47.8 47.8 47.8c2.4 2.4 5.5 3.6 8.7 3.6s6.3-1.2 8.7-3.6c4.8-4.8 4.8-12.5 0-17.3l-47.9-47.8 47.8-47.8c4.8-4.8 4.8-12.5 0-17.3s-12.5-4.8-17.3 0l-47.8 47.8-47.8-47.8c-4.8-4.8-12.5-4.8-17.3 0s-4.8 12.5 0 17.3l47.8 47.8-47.8 47.8c-4.8 4.8-4.8 12.499-.1 17.3z"/>
    </symbol>
    <symbol xmlns="http://www.w3.org/2000/svg" id="tab" viewBox="0 0 535.5 535.5">
        <path d="M270.3 150.45l91.8 91.8H0v51h362.1l-91.8 91.8 35.7 35.7 153-153-153-153-35.7 35.7zm214.2-35.7v306h51v-306h-51z"/>
    </symbol>
    <symbol xmlns="http://www.w3.org/2000/svg" id="shift" viewBox="0 0 512 512">
        <path d="M184.5 460.1h137.3V237c0-11.3 9.1-20.4 20.3-20.4h69.3L255.6 60.1 99.9 216.6h64.2c11.2 0 20.3 9.1 20.3 20.4v223.1h.1zM342 501H164.1c-11.2 0-20.3-9.1-20.3-20.4V257.5H50.9c-19.9 0-25.2-23.9-14.4-34.9L241.3 16.7c7.6-7.7 21.1-7.7 28.7 0l204.7 205.9c12.6 12.7 5.4 34.9-14.4 34.9h-98v223.1c.1 11.3-9 20.4-20.3 20.4z"/>
    </symbol>
</svg>
